M48
INCH
T01C0.019
T02C0.035
T03C0.0354
T04C0.0394
T05C0.08
%
T01
X+026440Y+007690
X+026940Y+007065
X+025815Y+006440
X+024690Y+006190
X+024690Y+006690
X+023815Y+007315
X+023940Y+008065
X+027315Y+009065
X+028065Y+011315
X+028815Y+011690
X+026815Y+013815
X+021065Y+011440
X+020628Y+010377
X+020440Y+008940
X+020065Y+008565
X+019565Y+008440
X+017815Y+008440
X+017690Y+007690
X+019440Y+006065
X+016940Y+005190
X+013690Y+008190
X+013190Y+007815
X+012065Y+008065
X+010690Y+008690
X+012065Y+011440
X+011315Y+012565
X+013815Y+011315
X+014565Y+012065
X+016065Y+013190
X+015753Y+014065
X+016065Y+014565
X+016690Y+012065
X+017065Y+010440
X+019565Y+012315
X+019940Y+011815
X+020190Y+013940
T02
X+027780Y+014200
T03
X+027780Y+013200
X+027780Y+012200
X+013820Y+012190
X+013820Y+013190
X+012820Y+013190
X+012820Y+012190
X+012815Y+014190
X+013815Y+014190
T04
X+029754Y+012860
X+029754Y+014041
T05
X+013940Y+005690
T00
M30
