G04 DipTrace 2.4.0.2*
%INTop.gbr*%
%MOIN*%
%ADD10C,0.0098*%
%ADD13C,0.01*%
%ADD14C,0.015*%
%ADD15C,0.013*%
%ADD17R,0.0591X0.0276*%
%ADD18R,0.0315X0.0433*%
%ADD19R,0.0394X0.0433*%
%ADD20R,0.0276X0.0354*%
%ADD21R,0.0354X0.0276*%
%ADD22R,0.0433X0.0394*%
%ADD23R,0.0512X0.0591*%
%ADD24R,0.0236X0.0787*%
%ADD25R,0.0276X0.1654*%
%ADD26R,0.059X0.059*%
%ADD27C,0.0591*%
%ADD29R,0.0394X0.0394*%
%ADD30C,0.1575*%
%ADD31R,0.0787X0.0236*%
%ADD33O,0.0335X0.0138*%
%ADD34O,0.0138X0.0335*%
%ADD35R,0.1732X0.1732*%
%ADD37R,0.1083X0.0394*%
%ADD38R,0.2421X0.2185*%
%ADD39R,0.0197X0.0335*%
%ADD41O,0.0335X0.1181*%
%ADD42O,0.1181X0.0335*%
%ADD43R,0.0098X0.0236*%
%ADD44R,0.0157X0.0236*%
%ADD45R,0.0945X0.0591*%
%ADD46C,0.04*%
%FSLAX44Y44*%
G04*
G70*
G90*
G75*
G01*
%LNTop*%
%LPD*%
X13012Y8690D2*
D10*
Y8887D1*
D13*
X13440Y9315D1*
X16940D1*
X17315Y9690D1*
X17690D1*
Y9660D1*
X13996Y10186D2*
D10*
X14096D1*
D13*
X15311D1*
X16065Y10940D1*
X17690D1*
X13996Y10186D2*
D10*
Y10354D1*
D13*
Y11134D1*
X13815Y11315D1*
X22918Y7322D2*
X23815D1*
Y7315D1*
X18340Y9011D2*
Y8840D1*
X17815Y8315D1*
Y8440D1*
X12815Y10186D2*
D10*
X12716D1*
D13*
X12069D1*
X9565Y12690D1*
X8140D1*
X8040Y12590D1*
X25176Y10720D2*
D14*
Y10025D1*
X25261Y9940D1*
X29794Y10720D2*
Y10044D1*
X29690Y9940D1*
X19108Y11334D2*
D13*
Y11758D1*
X19235Y11885D1*
X15174Y11693D2*
X15187D1*
X15565Y11315D1*
X18065D1*
X18084Y11334D1*
X16815Y13065D2*
D14*
X18128D1*
X19190Y12002D1*
Y11930D1*
X19235Y11885D1*
X16815Y13065D2*
X16065D1*
Y13190D1*
X27780Y14200D2*
X26431D1*
X25940Y14690D1*
X25395D1*
X25375Y14670D1*
X25376Y11523D2*
Y10921D1*
X25176Y10720D1*
X22095D1*
X21940Y10565D1*
Y13050D1*
X21892Y13098D1*
X12815Y8690D2*
D13*
Y8190D1*
X12690Y8065D1*
Y7565D1*
X12878Y7377D1*
X13815D1*
X14440Y8003D1*
Y8565D1*
D10*
X14315Y8690D1*
X13996D1*
X25375Y14670D2*
D14*
X23960D1*
X23690Y14940D1*
X14565D1*
X13815Y14190D1*
X21892Y13098D2*
X21033D1*
X20190Y13940D1*
X21892Y13098D2*
Y12267D1*
X21065Y11440D1*
X15174Y11693D2*
X14802Y12065D1*
X14565D1*
X17690Y9916D2*
D13*
Y9940D1*
X17190D1*
X16815Y9565D1*
X13315D1*
X12815Y9065D1*
Y8858D1*
D10*
Y8690D1*
X11209Y14565D2*
D13*
X11190D1*
X11565Y14940D1*
X13065D1*
X13815Y14190D1*
X13996Y8690D2*
X14315D1*
X14940Y8065D1*
Y5646D1*
X15565Y5021D1*
X22918Y5846D2*
D14*
X22225D1*
X22139Y5759D1*
X18599Y7993D2*
D13*
Y7656D1*
X18815Y7440D1*
Y6892D1*
X18813Y6890D1*
D14*
Y6317D1*
X19065Y6065D1*
X19440D1*
X22139Y5759D2*
X22009D1*
X20940Y4690D1*
X15896D1*
X15565Y5021D1*
X16771D1*
X16940Y5190D1*
X28815Y11690D2*
X28824D1*
X29794Y10720D1*
X26940Y7065D2*
Y6815D1*
X27690Y6065D1*
Y5227D1*
X27721Y5196D1*
X19620Y9011D2*
D13*
X20065Y8565D1*
X20815Y7815D1*
X13209Y8690D2*
D10*
Y8522D1*
D13*
Y7834D1*
X13190Y7815D1*
X11602Y13502D2*
Y13408D1*
X12820Y12190D1*
X12070Y11440D1*
X12065D1*
X20013Y9405D2*
Y9367D1*
X20440Y8940D1*
X20940Y8440D1*
X20815D1*
X13406Y8690D2*
D10*
Y8522D1*
D13*
Y8474D1*
X13690Y8190D1*
X12820Y13190D2*
X11940Y14070D1*
Y14315D1*
X11690Y14565D1*
X11602D1*
X22918Y7814D2*
X23689D1*
X23940Y8065D1*
X19620Y11334D2*
X19647D1*
X19940Y11627D1*
Y11815D1*
X18596Y11334D2*
Y11534D1*
X18065Y12065D1*
X16690D1*
X17690Y7690D2*
X18065Y7315D1*
Y6930D1*
X18026Y6890D1*
X17690Y7690D2*
X17065D1*
X21192Y10565D2*
Y9813D1*
X21315Y9690D1*
X29065Y13746D2*
D14*
Y13691D1*
X28074Y12700D1*
X27199D1*
X26692Y12193D1*
X29065Y12565D2*
X28815D1*
X28450Y12200D1*
X27780D1*
X29065Y14337D2*
X28917D1*
X27780Y13200D1*
X16396Y7690D2*
D13*
X15565D1*
Y7109D1*
Y6440D2*
Y5690D1*
X27721Y9940D2*
D14*
Y9471D1*
X27315Y9065D1*
X28214Y9940D2*
Y9463D1*
X26440Y7690D1*
X19108Y9011D2*
D13*
Y8148D1*
X19565Y7690D1*
Y6925D1*
X19601Y6890D1*
X18852Y9011D2*
Y8029D1*
X19190Y7690D1*
Y6906D1*
X19207Y6890D1*
X13012Y10186D2*
D10*
Y10012D1*
D13*
X10440Y7440D1*
X8190D1*
X8040Y7290D1*
X27229Y5196D2*
D14*
Y5901D1*
X26690Y6440D1*
X25815D1*
X20013Y10172D2*
D13*
X20423D1*
X20628Y10377D1*
X16815Y14065D2*
X15753D1*
X18941Y13065D2*
X19315D1*
X20253Y12128D1*
Y11180D1*
X20013Y10940D1*
Y10428D2*
X20116D1*
X20503Y10815D1*
Y12378D1*
X19315Y13565D1*
X18941D1*
X19364Y11334D2*
Y11488D1*
X19565Y11690D1*
Y12315D1*
X16815Y14565D2*
X16065D1*
X20013Y9660D2*
X20616D1*
X20646Y9690D1*
X25261Y5196D2*
D14*
Y5620D1*
X24690Y6190D1*
X17690Y10428D2*
D13*
X17077D1*
X17065Y10440D1*
X25753Y5196D2*
D14*
Y5627D1*
X24690Y6690D1*
X19364Y9011D2*
D13*
Y8642D1*
X19565Y8440D1*
X25905Y12193D2*
D14*
X25377D1*
X25376Y12192D1*
X24530Y12200D2*
X25369D1*
X18852Y11334D2*
D13*
Y11756D1*
X18723Y11885D1*
X25375Y14001D2*
D14*
X24536D1*
X24530Y13995D1*
X16815Y13565D2*
X15753D1*
X15440Y13252D1*
Y13235D1*
X24530Y13995D2*
X24135D1*
X23565Y14565D1*
X18941D1*
Y14065D1*
X18190D1*
X17690Y13565D1*
X16815D1*
X15440Y13235D2*
Y13190D1*
X16065Y12565D1*
X18043D1*
X18723Y11885D1*
X15440Y13235D2*
X13865D1*
X13820Y13190D1*
X11209Y13502D2*
D13*
Y12671D1*
X11315Y12565D1*
X29125Y10720D2*
D14*
Y10013D1*
X29198Y9940D1*
X28706D1*
Y10425D1*
X28315Y10815D1*
X25940D1*
X25845Y10720D1*
Y10032D1*
X25753Y9940D1*
X22918Y6338D2*
X22229D1*
X22139Y6428D1*
X25753Y9940D2*
Y9128D1*
X24190Y7565D1*
Y6690D1*
X23815Y6315D1*
X22941D1*
X22918Y6338D1*
X21484Y8440D2*
Y7815D1*
Y7083D1*
X22139Y6428D1*
X18599Y8504D2*
D13*
Y9007D1*
X18596Y9011D1*
X18599Y8504D2*
X18505D1*
X18315Y8315D1*
Y8065D1*
Y7440D1*
X18440Y7315D1*
Y6911D1*
X18419Y6890D1*
X18315Y8065D2*
X16065D1*
X15771Y8359D1*
X15565D1*
X13800Y8690D2*
Y8924D1*
X13940Y9065D1*
X14315D1*
X15021Y8359D1*
X15565D1*
X18419Y6890D2*
D14*
Y6336D1*
X19690Y5065D1*
X20690D1*
X22054Y6428D1*
X22139D1*
X28065Y11315D2*
D3*
X29125Y10720D2*
X29035D1*
X28440Y11315D1*
X28065D1*
X26690D1*
X26315Y11690D1*
Y13565D1*
X25815Y14065D1*
X25439D1*
X25375Y14001D1*
X15686Y11693D2*
D13*
X18125D1*
X18315Y11502D1*
Y11358D1*
X18340Y11334D1*
X15440Y12565D2*
Y12503D1*
X15686Y12257D1*
Y11693D1*
X15440Y12565D2*
D14*
X14195D1*
X13820Y12190D1*
X13406Y10186D2*
D10*
Y10354D1*
D13*
Y11776D1*
X13820Y12190D1*
X13209Y10186D2*
D10*
Y10018D1*
D13*
Y9834D1*
X12065Y8690D1*
Y8065D1*
X10690Y8690D2*
Y9939D1*
Y9940D1*
D46*
X26440Y7690D3*
X27315Y9065D3*
X24690Y6190D3*
Y6690D3*
X23940Y8065D3*
X23815Y7315D3*
X19565Y8440D3*
X17065Y10440D3*
X13190Y7815D3*
X13690Y8190D3*
X16690Y12065D3*
X17690Y7690D3*
X19565Y12315D3*
X19940Y11815D3*
X16065Y14565D3*
X15753Y14065D3*
X20628Y10377D3*
X16065Y13190D3*
X20190Y13940D3*
X17815Y8440D3*
X20440Y8940D3*
X20065Y8565D3*
X21065Y11440D3*
X26815Y13815D3*
X14565Y12065D3*
X12065Y8065D3*
X10690Y8690D3*
X11315Y12565D3*
X13815Y11315D3*
X12065Y11440D3*
X19440Y6065D3*
X16940Y5190D3*
X28815Y11690D3*
X26940Y7065D3*
X25815Y6440D3*
X28065Y11315D3*
X10553Y15446D2*
D15*
X30061D1*
X10104Y15318D2*
X30061D1*
X9653Y15189D2*
X29109D1*
X9202Y15060D2*
X24894D1*
X25854D2*
X29109D1*
X8751Y14932D2*
X10848D1*
X11965D2*
X15757D1*
X17492D2*
X18264D1*
X19618D2*
X24894D1*
X25854D2*
X29109D1*
X8300Y14803D2*
X10523D1*
X11965D2*
X15648D1*
X17492D2*
X18264D1*
X23829D2*
X24894D1*
X25854D2*
X29109D1*
X7851Y14674D2*
X10523D1*
X12046D2*
X12511D1*
X13120D2*
X13511D1*
X14120D2*
X15595D1*
X17492D2*
X18264D1*
X23957D2*
X24894D1*
X25854D2*
X27201D1*
X28359D2*
X28487D1*
X7400Y14545D2*
X10523D1*
X12176D2*
X12363D1*
X13269D2*
X13363D1*
X14268D2*
X15583D1*
X17492D2*
X18264D1*
X24085D2*
X24894D1*
X25854D2*
X27201D1*
X28359D2*
X28487D1*
X6949Y14417D2*
X10523D1*
X14345D2*
X15428D1*
X17492D2*
X18264D1*
X25854D2*
X27201D1*
X28359D2*
X28487D1*
X6501Y14288D2*
X10523D1*
X14386D2*
X15327D1*
X17492D2*
X17913D1*
X26094D2*
X27201D1*
X6050Y14159D2*
X10523D1*
X14392D2*
X15280D1*
X17492D2*
X17785D1*
X19618D2*
X20399D1*
X23386D2*
X23470D1*
X26222D2*
X27201D1*
X5599Y14031D2*
X10523D1*
X14372D2*
X15272D1*
X17492D2*
X17655D1*
X19618D2*
X20399D1*
X23386D2*
X23598D1*
X26350D2*
X27201D1*
X5148Y13902D2*
X10523D1*
X14315D2*
X15298D1*
X19618D2*
X20399D1*
X23386D2*
X23706D1*
X26480D2*
X27201D1*
X4699Y13773D2*
X10523D1*
X13210D2*
X13419D1*
X14211D2*
X15371D1*
X19618D2*
X20399D1*
X23386D2*
X23706D1*
X26604D2*
X27201D1*
X4318Y13645D2*
X7955D1*
X8124D2*
X10523D1*
X13169D2*
X13470D1*
X14169D2*
X14959D1*
X19702D2*
X20399D1*
X23386D2*
X23706D1*
X26665D2*
X27201D1*
X4318Y13516D2*
X7517D1*
X8562D2*
X10523D1*
X19830D2*
X20399D1*
X23386D2*
X24894D1*
X26673D2*
X27299D1*
X4318Y13387D2*
X7334D1*
X8747D2*
X10523D1*
X19960D2*
X20399D1*
X23386D2*
X25958D1*
X26673D2*
X27234D1*
X4318Y13259D2*
X7208D1*
X8871D2*
X10523D1*
X20088D2*
X20399D1*
X23386D2*
X25958D1*
X26673D2*
X27206D1*
X4318Y13130D2*
X7118D1*
X8962D2*
X10848D1*
X20216D2*
X20399D1*
X23386D2*
X25958D1*
X26673D2*
X27206D1*
X4318Y13001D2*
X7053D1*
X9653D2*
X10876D1*
X23386D2*
X25958D1*
X26673D2*
X27019D1*
X4318Y12873D2*
X7009D1*
X9848D2*
X10876D1*
X23386D2*
X25958D1*
X26673D2*
X26870D1*
X4318Y12744D2*
X6980D1*
X9978D2*
X10868D1*
X23386D2*
X25958D1*
X26673D2*
X26742D1*
X4318Y12615D2*
X6970D1*
X10106D2*
X10834D1*
X11796D2*
X11928D1*
X18493D2*
X19190D1*
X23386D2*
X23706D1*
X4318Y12486D2*
X6974D1*
X10234D2*
X10838D1*
X11792D2*
X12058D1*
X18623D2*
X19115D1*
X23386D2*
X23706D1*
X4318Y12358D2*
X6995D1*
X9084D2*
X9432D1*
X10364D2*
X10880D1*
X11749D2*
X12186D1*
X18751D2*
X19085D1*
X23386D2*
X23706D1*
X4318Y12229D2*
X7033D1*
X9048D2*
X9560D1*
X10492D2*
X10974D1*
X11656D2*
X12243D1*
X23386D2*
X23706D1*
X4318Y12100D2*
X7090D1*
X8991D2*
X9690D1*
X10620D2*
X11230D1*
X11400D2*
X12249D1*
X14392D2*
X14793D1*
X23386D2*
X23706D1*
X28850D2*
X29109D1*
X4318Y11972D2*
X7169D1*
X8912D2*
X9818D1*
X10750D2*
X12136D1*
X14355D2*
X14793D1*
X23386D2*
X23706D1*
X28722D2*
X29109D1*
X4318Y11843D2*
X7279D1*
X8802D2*
X9946D1*
X10878D2*
X11811D1*
X14280D2*
X14793D1*
X23386D2*
X23706D1*
X28231D2*
X29109D1*
X4318Y11714D2*
X7433D1*
X8646D2*
X10076D1*
X11006D2*
X11671D1*
X14138D2*
X14793D1*
X20835D2*
X24896D1*
X28326D2*
X29109D1*
X4318Y11586D2*
X7695D1*
X8386D2*
X10204D1*
X11136D2*
X11606D1*
X12682D2*
X13072D1*
X14213D2*
X14793D1*
X20835D2*
X24896D1*
X28668D2*
X30061D1*
X4318Y11457D2*
X10332D1*
X11264D2*
X11583D1*
X12552D2*
X13072D1*
X14276D2*
X14793D1*
X20835D2*
X24896D1*
X28800D2*
X30061D1*
X4318Y11328D2*
X10462D1*
X11392D2*
X11595D1*
X12535D2*
X13072D1*
X14299D2*
X14793D1*
X16068D2*
X17732D1*
X20835D2*
X24896D1*
X28928D2*
X30061D1*
X4318Y11200D2*
X10590D1*
X11522D2*
X11648D1*
X12483D2*
X13072D1*
X14323D2*
X15118D1*
X15741D2*
X15865D1*
X20835D2*
X24896D1*
X29058D2*
X30061D1*
X4318Y11071D2*
X10718D1*
X11650D2*
X11762D1*
X12369D2*
X13072D1*
X14329D2*
X15118D1*
X22478D2*
X24677D1*
X4318Y10942D2*
X10340D1*
X11780D2*
X13072D1*
X14329D2*
X15118D1*
X22478D2*
X24677D1*
X4318Y10814D2*
X10080D1*
X11908D2*
X13072D1*
X14329D2*
X15118D1*
X22478D2*
X24677D1*
X4318Y10685D2*
X9926D1*
X12036D2*
X13072D1*
X14329D2*
X15118D1*
X22478D2*
X23594D1*
X23975D2*
X24086D1*
X24467D2*
X24579D1*
X4318Y10556D2*
X9818D1*
X12166D2*
X12483D1*
X14329D2*
X15118D1*
X22478D2*
X23458D1*
X4318Y10427D2*
X9739D1*
X22478D2*
X23409D1*
X4318Y10299D2*
X9682D1*
X22478D2*
X23405D1*
X4318Y10170D2*
X9645D1*
X22478D2*
X23405D1*
X4318Y10041D2*
X9623D1*
X22478D2*
X23405D1*
X4318Y9913D2*
X9619D1*
X21814D2*
X23405D1*
X4318Y9784D2*
X9631D1*
X21814D2*
X23405D1*
X4318Y9655D2*
X9658D1*
X21814D2*
X22440D1*
X4318Y9527D2*
X9704D1*
X21814D2*
X22201D1*
X4318Y9398D2*
X9769D1*
X21814D2*
X22131D1*
X4318Y9269D2*
X9859D1*
X21814D2*
X22115D1*
X4318Y9141D2*
X9985D1*
X20878D2*
X22146D1*
X26110D2*
X26838D1*
X4318Y9012D2*
X10169D1*
X20918D2*
X22182D1*
X26092D2*
X26836D1*
X4318Y8883D2*
X10249D1*
X21985D2*
X22125D1*
X26009D2*
X26868D1*
X4318Y8755D2*
X10212D1*
X21985D2*
X22117D1*
X25881D2*
X26950D1*
X4318Y8626D2*
X10212D1*
X21985D2*
X22158D1*
X25753D2*
X26874D1*
X4318Y8497D2*
X10249D1*
X12399D2*
X12483D1*
X14329D2*
X14418D1*
X21985D2*
X22168D1*
X25623D2*
X26746D1*
X4318Y8368D2*
X10334D1*
X14329D2*
X14547D1*
X21985D2*
X22119D1*
X25495D2*
X26618D1*
X27619D2*
X27732D1*
X4318Y8240D2*
X7561D1*
X8520D2*
X10543D1*
X12515D2*
X12875D1*
X14171D2*
X14675D1*
X21985D2*
X22121D1*
X25367D2*
X26488D1*
X27492D2*
X27732D1*
X4318Y8111D2*
X7360D1*
X8721D2*
X10647D1*
X12546D2*
X12812D1*
X14167D2*
X14807D1*
X21985D2*
X22162D1*
X25237D2*
X26218D1*
X27362D2*
X27732D1*
X4318Y7982D2*
X7228D1*
X8853D2*
X10517D1*
X11449D2*
X11589D1*
X12542D2*
X12739D1*
X14126D2*
X15085D1*
X21985D2*
X22079D1*
X25109D2*
X26060D1*
X27234D2*
X27732D1*
X4318Y7854D2*
X7133D1*
X8948D2*
X10389D1*
X11321D2*
X11632D1*
X12499D2*
X12708D1*
X14032D2*
X15085D1*
X24981D2*
X25987D1*
X27106D2*
X27732D1*
X4318Y7725D2*
X7064D1*
X11191D2*
X11727D1*
X12403D2*
X12717D1*
X13772D2*
X15085D1*
X21985D2*
X22054D1*
X24851D2*
X25958D1*
X26976D2*
X27732D1*
X4318Y7596D2*
X7015D1*
X11063D2*
X12016D1*
X12114D2*
X12761D1*
X13620D2*
X15085D1*
X21985D2*
X22103D1*
X24723D2*
X25966D1*
X26915D2*
X27732D1*
X4318Y7468D2*
X6984D1*
X10933D2*
X12861D1*
X13521D2*
X15085D1*
X21985D2*
X22071D1*
X24595D2*
X26013D1*
X26868D2*
X27732D1*
X4318Y7339D2*
X6970D1*
X10805D2*
X15085D1*
X21843D2*
X22044D1*
X24548D2*
X26115D1*
X26766D2*
X27732D1*
X4318Y7210D2*
X6972D1*
X10677D2*
X15085D1*
X16045D2*
X17624D1*
X21857D2*
X22058D1*
X24548D2*
X27732D1*
X4318Y7082D2*
X6991D1*
X9090D2*
X15085D1*
X16045D2*
X17281D1*
X21987D2*
X22117D1*
X24963D2*
X27732D1*
X4318Y6953D2*
X7025D1*
X9056D2*
X15085D1*
X16045D2*
X17281D1*
X25093D2*
X27732D1*
X4318Y6824D2*
X7078D1*
X9003D2*
X15085D1*
X16045D2*
X17281D1*
X25154D2*
X25532D1*
X26100D2*
X27732D1*
X4318Y6696D2*
X7153D1*
X8928D2*
X15085D1*
X16045D2*
X17281D1*
X25186D2*
X25408D1*
X26935D2*
X27732D1*
X4318Y6567D2*
X7257D1*
X8824D2*
X13521D1*
X14359D2*
X15085D1*
X16045D2*
X17281D1*
X27065D2*
X27732D1*
X4318Y6438D2*
X7401D1*
X8678D2*
X13316D1*
X14565D2*
X15085D1*
X16045D2*
X17281D1*
X27193D2*
X27732D1*
X4318Y6309D2*
X7632D1*
X8449D2*
X13186D1*
X14695D2*
X15085D1*
X16045D2*
X17281D1*
X27323D2*
X27732D1*
X4439Y6181D2*
X13094D1*
X14786D2*
X15085D1*
X16045D2*
X17281D1*
X27451D2*
X27732D1*
X4888Y6052D2*
X13031D1*
X14849D2*
X15085D1*
X16045D2*
X17281D1*
X27552D2*
X27646D1*
X5339Y5923D2*
X12989D1*
X14890D2*
X15085D1*
X16045D2*
X17281D1*
X5790Y5795D2*
X12966D1*
X14914D2*
X15085D1*
X16045D2*
X17281D1*
X6241Y5666D2*
X12960D1*
X14918D2*
X15085D1*
X16045D2*
X17281D1*
X6689Y5537D2*
X12973D1*
X14908D2*
X15085D1*
X16045D2*
X17281D1*
X7140Y5409D2*
X13003D1*
X14877D2*
X15085D1*
X16045D2*
X17281D1*
X21536D2*
X21658D1*
X7591Y5280D2*
X13052D1*
X14829D2*
X15085D1*
X16045D2*
X17281D1*
X21406D2*
X21658D1*
X22619D2*
X23405D1*
X8042Y5151D2*
X13125D1*
X14756D2*
X15085D1*
X16045D2*
X17281D1*
X21278D2*
X23405D1*
X8491Y5023D2*
X13228D1*
X14652D2*
X15085D1*
X16045D2*
X19231D1*
X21150D2*
X23405D1*
X8942Y4894D2*
X13379D1*
X14500D2*
X15085D1*
X16045D2*
X19361D1*
X21020D2*
X23405D1*
X9393Y4765D2*
X13647D1*
X14234D2*
X15085D1*
X16045D2*
X19507D1*
X20874D2*
X23405D1*
X9844Y4637D2*
X15085D1*
X16045D2*
X23429D1*
X10293Y4508D2*
X23517D1*
X10744Y4379D2*
X25056D1*
X25464D2*
X25548D1*
X25958D2*
X27025D1*
X27433D2*
X27518D1*
X29121Y12157D2*
X28893D1*
X28694Y11956D1*
X28644Y11914D1*
X28587Y11883D1*
X28525Y11863D1*
X28450Y11855D1*
X28228D1*
X28155Y11778D1*
X28250Y11748D1*
X28307Y11718D1*
X28383Y11660D1*
X28505Y11654D1*
X28567Y11636D1*
X28625Y11607D1*
X28684Y11559D1*
X29056Y11187D1*
X29612Y11185D1*
X29607Y11187D1*
X30075D1*
Y11599D1*
X29932Y11597D1*
X29672Y11599D1*
X29381Y11597D1*
X29121D1*
Y12156D1*
X16031Y6177D2*
X16032Y5203D1*
Y4534D1*
X15098D1*
X15100Y6177D1*
X15098Y6148D1*
X15100Y6927D1*
X15098Y7143D1*
X15100Y7596D1*
X15098Y7723D1*
Y8041D1*
X15021Y8039D1*
X14957Y8046D1*
X14895Y8065D1*
X14838Y8097D1*
X14795Y8133D1*
X14316Y8610D1*
Y8302D1*
X14147D1*
X14160Y8219D1*
X14156Y8125D1*
X14143Y8062D1*
X14121Y8001D1*
X14091Y7943D1*
X14053Y7890D1*
X14008Y7843D1*
X13957Y7803D1*
X13901Y7770D1*
X13841Y7745D1*
X13778Y7728D1*
X13714Y7720D1*
X13651Y7722D1*
X13621Y7626D1*
X13591Y7568D1*
X13553Y7515D1*
X13508Y7468D1*
X13457Y7428D1*
X13401Y7395D1*
X13341Y7370D1*
X13278Y7353D1*
X13214Y7345D1*
X13149Y7347D1*
X13085Y7357D1*
X13023Y7376D1*
X12964Y7403D1*
X12909Y7438D1*
X12860Y7480D1*
X12817Y7529D1*
X12781Y7583D1*
X12753Y7642D1*
X12734Y7704D1*
X12723Y7768D1*
X12721Y7833D1*
X12727Y7897D1*
X12743Y7960D1*
X12768Y8021D1*
X12800Y8077D1*
X12840Y8128D1*
X12888Y8175D1*
Y8302D1*
X12496D1*
Y8668D1*
X12386Y8557D1*
Y8408D1*
X12449Y8336D1*
X12483Y8281D1*
X12509Y8221D1*
X12526Y8159D1*
X12536Y8065D1*
X12531Y8000D1*
X12518Y7937D1*
X12496Y7876D1*
X12466Y7818D1*
X12428Y7765D1*
X12383Y7718D1*
X12332Y7678D1*
X12276Y7645D1*
X12216Y7620D1*
X12153Y7603D1*
X12089Y7595D1*
X12024Y7597D1*
X11960Y7607D1*
X11898Y7626D1*
X11839Y7653D1*
X11784Y7688D1*
X11735Y7730D1*
X11692Y7779D1*
X11656Y7833D1*
X11628Y7892D1*
X11609Y7954D1*
X11598Y8018D1*
X11596Y8083D1*
X11603Y8149D1*
X10667Y7214D1*
X10617Y7173D1*
X10559Y7143D1*
X10497Y7125D1*
X10440Y7120D1*
X9086D1*
X9048Y6970D1*
X9001Y6849D1*
X8940Y6735D1*
X8865Y6629D1*
X8778Y6532D1*
X8679Y6448D1*
X8571Y6376D1*
X8455Y6318D1*
X8332Y6274D1*
X8206Y6246D1*
X8076Y6233D1*
X7946Y6237D1*
X7818Y6256D1*
X7693Y6291D1*
X7573Y6341D1*
X7460Y6406D1*
X7356Y6484D1*
X7262Y6574D1*
X7180Y6674D1*
X7111Y6784D1*
X7056Y6902D1*
X7016Y7026D1*
X6991Y7153D1*
X6982Y7283D1*
X6989Y7413D1*
X7012Y7540D1*
X7051Y7665D1*
X7104Y7783D1*
X7172Y7894D1*
X7252Y7996D1*
X7345Y8087D1*
X7448Y8166D1*
X7559Y8233D1*
X7679Y8284D1*
X7803Y8321D1*
X7931Y8342D1*
X8061Y8348D1*
X8191Y8337D1*
X8318Y8311D1*
X8441Y8269D1*
X8558Y8213D1*
X8667Y8142D1*
X8767Y8059D1*
X8855Y7964D1*
X8932Y7859D1*
X8986Y7761D1*
X10075Y7760D1*
X10308D1*
X10776Y8228D1*
X10714Y8220D1*
X10649Y8222D1*
X10585Y8232D1*
X10523Y8251D1*
X10464Y8278D1*
X10409Y8313D1*
X10360Y8355D1*
X10317Y8404D1*
X10281Y8458D1*
X10253Y8517D1*
X10234Y8579D1*
X10223Y8643D1*
X10221Y8708D1*
X10227Y8772D1*
X10243Y8835D1*
X10268Y8896D1*
X10304Y8957D1*
X10223Y8991D1*
X10110Y9056D1*
X10006Y9133D1*
X9912Y9223D1*
X9830Y9324D1*
X9761Y9434D1*
X9706Y9552D1*
X9666Y9675D1*
X9641Y9803D1*
X9632Y9932D1*
X9639Y10062D1*
X9662Y10190D1*
X9700Y10314D1*
X9754Y10433D1*
X9821Y10544D1*
X9902Y10646D1*
X9994Y10737D1*
X10097Y10816D1*
X10209Y10882D1*
X10328Y10934D1*
X10453Y10971D1*
X10581Y10992D1*
X10711Y10997D1*
X10814Y10990D1*
X9431Y12371D1*
X9076Y12370D1*
X9027Y12208D1*
X8972Y12090D1*
X8904Y11980D1*
X8823Y11878D1*
X8730Y11788D1*
X8626Y11709D1*
X8514Y11644D1*
X8394Y11593D1*
X8269Y11557D1*
X8141Y11537D1*
X8011Y11532D1*
X7882Y11544D1*
X7755Y11571D1*
X7632Y11614D1*
X7516Y11671D1*
X7407Y11742D1*
X7308Y11826D1*
X7220Y11922D1*
X7144Y12028D1*
X7082Y12142D1*
X7034Y12263D1*
X7002Y12388D1*
X6985Y12517D1*
X6984Y12647D1*
X6999Y12776D1*
X7030Y12902D1*
X7076Y13024D1*
X7136Y13139D1*
X7210Y13245D1*
X7297Y13342D1*
X7395Y13428D1*
X7503Y13500D1*
X7618Y13559D1*
X7740Y13604D1*
X7867Y13633D1*
X7996Y13646D1*
X8126Y13644D1*
X8255Y13625D1*
X8380Y13591D1*
X8500Y13542D1*
X8614Y13478D1*
X8718Y13401D1*
X8813Y13312D1*
X8895Y13212D1*
X8965Y13102D1*
X9010Y13009D1*
X9565Y13010D1*
X9630Y13004D1*
X9692Y12984D1*
X9749Y12953D1*
X9792Y12916D1*
X12203Y10505D1*
X12498Y10506D1*
X12496Y10574D1*
X13085D1*
X13086Y11693D1*
X13051Y11674D1*
X12991Y11651D1*
X12928Y11635D1*
X12863Y11626D1*
X12798Y11625D1*
X12716Y11635D1*
X12537Y11454D1*
X12531Y11375D1*
X12518Y11312D1*
X12496Y11251D1*
X12466Y11193D1*
X12428Y11140D1*
X12383Y11093D1*
X12332Y11053D1*
X12276Y11020D1*
X12216Y10995D1*
X12153Y10978D1*
X12089Y10970D1*
X12024Y10972D1*
X11960Y10982D1*
X11898Y11001D1*
X11839Y11028D1*
X11784Y11063D1*
X11735Y11105D1*
X11692Y11154D1*
X11656Y11208D1*
X11628Y11267D1*
X11609Y11329D1*
X11598Y11393D1*
X11596Y11458D1*
X11602Y11522D1*
X11618Y11585D1*
X11643Y11646D1*
X11675Y11702D1*
X11715Y11753D1*
X11761Y11799D1*
X11814Y11837D1*
X11871Y11868D1*
X11932Y11891D1*
X11995Y11905D1*
X12086Y11909D1*
X12264Y12087D1*
X12255Y12169D1*
X12256Y12233D1*
X12264Y12292D1*
X11529Y13028D1*
X11557Y12968D1*
X11610Y12931D1*
X11658Y12887D1*
X11699Y12836D1*
X11733Y12781D1*
X11758Y12721D1*
X11776Y12659D1*
X11785Y12565D1*
X11781Y12500D1*
X11767Y12437D1*
X11745Y12376D1*
X11715Y12318D1*
X11677Y12265D1*
X11633Y12218D1*
X11582Y12178D1*
X11526Y12145D1*
X11466Y12120D1*
X11403Y12103D1*
X11339Y12095D1*
X11274Y12097D1*
X11209Y12107D1*
X11147Y12126D1*
X11088Y12153D1*
X11034Y12188D1*
X10985Y12230D1*
X10942Y12279D1*
X10906Y12333D1*
X10878Y12392D1*
X10858Y12454D1*
X10847Y12518D1*
X10845Y12583D1*
X10852Y12647D1*
X10868Y12710D1*
X10888Y12761D1*
X10889Y13112D1*
X10860Y13114D1*
Y13185D1*
X10536Y13184D1*
X10538Y13820D1*
X10536Y13863D1*
X10538Y14529D1*
X10536Y14572D1*
Y14883D1*
X10859D1*
X10860Y14953D1*
X11951D1*
Y14756D1*
X12166Y14541D1*
X12207Y14491D1*
X12237Y14434D1*
X12255Y14371D1*
X12260Y14298D1*
X12276Y14361D1*
X12299Y14422D1*
X12329Y14479D1*
X12366Y14533D1*
X12408Y14582D1*
X12456Y14626D1*
X12508Y14665D1*
X12565Y14697D1*
X12624Y14722D1*
X12687Y14741D1*
X12751Y14752D1*
X12816Y14755D1*
X12881Y14752D1*
X12945Y14741D1*
X13007Y14722D1*
X13067Y14697D1*
X13123Y14665D1*
X13175Y14626D1*
X13223Y14582D1*
X13265Y14533D1*
X13316Y14452D1*
X13336Y14490D1*
X13391Y14563D1*
X13456Y14626D1*
X13530Y14678D1*
X13612Y14718D1*
X13699Y14743D1*
X13790Y14755D1*
X13881Y14752D1*
X13970Y14734D1*
X14055Y14702D1*
X14134Y14657D1*
X14205Y14600D1*
X14265Y14533D1*
X14314Y14456D1*
X14351Y14373D1*
X14373Y14285D1*
X14381Y14194D1*
X14375Y14112D1*
X14356Y14024D1*
X14322Y13939D1*
X14275Y13861D1*
X14217Y13792D1*
X14148Y13733D1*
X14081Y13691D1*
X14128Y13664D1*
X14180Y13626D1*
X14229Y13580D1*
X14972D1*
X14973Y13721D1*
X15422D1*
X15427Y13727D1*
X15380Y13779D1*
X15344Y13833D1*
X15316Y13892D1*
X15296Y13954D1*
X15285Y14018D1*
X15283Y14083D1*
X15290Y14147D1*
X15306Y14210D1*
X15330Y14271D1*
X15362Y14327D1*
X15402Y14378D1*
X15449Y14424D1*
X15501Y14462D1*
X15558Y14493D1*
X15598Y14508D1*
X15596Y14583D1*
X15602Y14647D1*
X15618Y14710D1*
X15643Y14771D1*
X15675Y14827D1*
X15715Y14878D1*
X15761Y14924D1*
X15814Y14962D1*
X15871Y14993D1*
X15932Y15016D1*
X15995Y15030D1*
X16060Y15035D1*
X16124Y15031D1*
X16188Y15019D1*
X16250Y14998D1*
X16329Y14953D1*
X17479D1*
X17477Y14177D1*
X17479Y14128D1*
Y13911D1*
X17549Y13910D1*
X17946Y14309D1*
X17996Y14350D1*
X18053Y14382D1*
X18115Y14402D1*
X18190Y14410D1*
X18278D1*
X18277Y14953D1*
X19605D1*
Y14911D1*
X23565Y14910D1*
X23630Y14904D1*
X23692Y14886D1*
X23750Y14857D1*
X23809Y14809D1*
X24156Y14463D1*
X24907Y14462D1*
X24908Y14833D1*
Y15157D1*
X25842D1*
Y14409D1*
X25911Y14397D1*
X25971Y14373D1*
X26026Y14338D1*
X26151Y14217D1*
X26559Y13809D1*
X26601Y13759D1*
X26632Y13702D1*
X26652Y13640D1*
X26661Y13565D1*
Y12661D1*
X26678Y12667D1*
X26955Y12944D1*
X27005Y12985D1*
X27062Y13017D1*
X27124Y13037D1*
X27199Y13045D1*
X27238D1*
X27221Y13114D1*
X27215Y13178D1*
X27216Y13243D1*
X27225Y13308D1*
X27241Y13371D1*
X27264Y13431D1*
X27294Y13489D1*
X27330Y13543D1*
X27373Y13592D1*
X27419Y13635D1*
X27215D1*
Y14765D1*
X28345D1*
Y14253D1*
X28500Y14406D1*
Y14745D1*
X29119D1*
X29121Y15305D1*
X29836Y15303D1*
X30076Y15305D1*
X30075Y15575D1*
X10990D1*
X4304Y13664D1*
X4305Y12609D1*
Y6216D1*
X5508Y5872D1*
X10991Y4305D1*
X11037Y4273D1*
X10992Y4305D1*
X27745D1*
Y4337D1*
X27687Y4305D1*
X27746D1*
X27745Y4336D1*
X27668Y4338D1*
X27592Y4355D1*
X27520Y4384D1*
X27476Y4413D1*
X27393Y4367D1*
X27331Y4347D1*
X27267Y4337D1*
X27202Y4336D1*
X27137Y4345D1*
X27075Y4363D1*
X27016Y4391D1*
X26962Y4426D1*
X26925Y4458D1*
X26857Y4425D1*
X26794Y4410D1*
X26730Y4405D1*
X26665Y4412D1*
X26603Y4431D1*
X26545Y4460D1*
X26491Y4501D1*
X26424Y4452D1*
X26365Y4425D1*
X26302Y4410D1*
X26237Y4405D1*
X26173Y4412D1*
X26111Y4431D1*
X26056Y4459D1*
X26028Y4432D1*
X25975Y4395D1*
X25916Y4367D1*
X25854Y4347D1*
X25790Y4337D1*
X25725Y4336D1*
X25661Y4345D1*
X25599Y4363D1*
X25540Y4391D1*
X25507Y4413D1*
X25424Y4367D1*
X25362Y4347D1*
X25298Y4337D1*
X25233Y4336D1*
X25169Y4345D1*
X25107Y4363D1*
X25048Y4391D1*
X24993Y4426D1*
X24956Y4458D1*
X24889Y4425D1*
X24826Y4410D1*
X24761Y4405D1*
X24697Y4412D1*
X24634Y4431D1*
X24576Y4460D1*
X24523Y4501D1*
X24456Y4452D1*
X24397Y4425D1*
X24334Y4410D1*
X24269Y4405D1*
X24204Y4412D1*
X24142Y4431D1*
X24084Y4460D1*
X24030Y4501D1*
X23964Y4452D1*
X23905Y4425D1*
X23842Y4410D1*
X23777Y4405D1*
X23712Y4412D1*
X23650Y4431D1*
X23592Y4460D1*
X23540Y4498D1*
X23495Y4546D1*
X23460Y4600D1*
X23435Y4660D1*
X23420Y4723D1*
X23417Y4838D1*
Y5417D1*
X23329Y5408D1*
X23379Y5410D1*
X23147Y5408D1*
X22606D1*
Y5272D1*
X21672D1*
Y5559D1*
X20934Y4821D1*
X20884Y4780D1*
X20828Y4748D1*
X20766Y4728D1*
X20690Y4720D1*
X19690D1*
X19626Y4726D1*
X19563Y4744D1*
X19506Y4773D1*
X19446Y4821D1*
X19145Y5120D1*
X17969D1*
X17970Y5036D1*
X17294D1*
Y7090D1*
X17369D1*
X17370Y7135D1*
X17637Y7136D1*
Y7223D1*
X17551Y7242D1*
X17552Y7223D1*
X16578Y7225D1*
X16362Y7223D1*
X16031D1*
X16032Y6623D1*
Y5953D1*
X16030D1*
X18802Y12293D2*
X19096D1*
X19102Y12397D1*
X19118Y12460D1*
X19143Y12521D1*
X19175Y12577D1*
X19215Y12628D1*
X19257Y12669D1*
X19215Y12677D1*
X18421D1*
X18803Y12293D1*
X19087D1*
X24974Y12679D2*
X25844D1*
Y12661D1*
X25972Y12660D1*
X25970Y12860D1*
Y13423D1*
X25843Y13549D1*
X25842Y13514D1*
X24908D1*
Y13528D1*
X23718D1*
Y13924D1*
X23421Y14221D1*
X23373Y14213D1*
Y11735D1*
X20823D1*
Y11132D1*
X21186Y11130D1*
X21718Y11128D1*
X21713Y11130D1*
X22466D1*
Y10000D1*
X21802D1*
Y9223D1*
X20828Y9225D1*
X20824Y9211D1*
X20858Y9156D1*
X20884Y9096D1*
X20901Y9034D1*
X20911Y8940D1*
X20909Y8922D1*
X20978Y8907D1*
X21302Y8905D1*
X21518Y8907D1*
X21971D1*
X21969Y7973D1*
X21971Y7762D1*
Y7348D1*
X21831D1*
X21829Y7224D1*
X22138Y6918D1*
X22156Y6971D1*
X22179Y7019D1*
X22138Y7069D1*
X22105Y7125D1*
X22080Y7185D1*
X22064Y7248D1*
X22058Y7312D1*
X22061Y7377D1*
X22074Y7441D1*
X22096Y7502D1*
X22133Y7567D1*
X22105Y7617D1*
X22080Y7677D1*
X22064Y7740D1*
X22058Y7805D1*
X22061Y7869D1*
X22074Y7933D1*
X22096Y7994D1*
X22127Y8051D1*
X22180Y8116D1*
X22145Y8193D1*
X22131Y8257D1*
X22128Y8322D1*
X22136Y8386D1*
X22156Y8448D1*
X22186Y8505D1*
X22222Y8552D1*
X22171Y8626D1*
X22145Y8686D1*
X22131Y8749D1*
X22128Y8814D1*
X22136Y8878D1*
X22156Y8940D1*
X22186Y8997D1*
X22222Y9044D1*
X22171Y9118D1*
X22145Y9178D1*
X22131Y9241D1*
X22128Y9306D1*
X22136Y9370D1*
X22156Y9432D1*
X22186Y9489D1*
X22226Y9541D1*
X22274Y9584D1*
X22329Y9618D1*
X22390Y9642D1*
X22453Y9656D1*
X22560Y9658D1*
X23342Y9656D1*
X23365Y9657D1*
X23419Y9649D1*
X23417Y10167D1*
X23419Y10363D1*
X23426Y10443D1*
X23445Y10505D1*
X23476Y10562D1*
X23515Y10614D1*
X23564Y10657D1*
X23619Y10691D1*
X23679Y10715D1*
X23743Y10728D1*
X23808Y10730D1*
X23872Y10720D1*
X23933Y10699D1*
X23990Y10668D1*
X24029Y10636D1*
X24111Y10691D1*
X24171Y10715D1*
X24235Y10728D1*
X24300Y10730D1*
X24364Y10720D1*
X24425Y10699D1*
X24482Y10668D1*
X24522Y10636D1*
X24603Y10691D1*
X24663Y10715D1*
X24689Y10721D1*
Y11187D1*
X24909D1*
Y11733D1*
X23718D1*
Y12667D1*
X24911D1*
X24909Y12679D1*
X24974D1*
X14973Y12129D2*
Y12219D1*
X14386Y12220D1*
X14382Y12125D1*
X14371Y12061D1*
X14352Y11999D1*
X14327Y11939D1*
X14295Y11883D1*
X14256Y11830D1*
X14212Y11783D1*
X14163Y11740D1*
X14093Y11695D1*
X14158Y11637D1*
X14199Y11586D1*
X14233Y11531D1*
X14259Y11471D1*
X14276Y11409D1*
X14286Y11315D1*
X14283Y11277D1*
X14312Y11190D1*
X14317Y11134D1*
Y10506D1*
X15130D1*
X15131Y11019D1*
Y11234D1*
X15729D1*
Y11056D1*
X15839Y11166D1*
X15889Y11207D1*
X15947Y11237D1*
X16009Y11255D1*
X16065Y11260D1*
X17481D1*
X17554Y11277D1*
X17657Y11279D1*
X17744D1*
X17745Y11373D1*
X16055D1*
Y11261D1*
X15973Y11246D1*
X15990Y11256D1*
X15317Y11258D1*
X15309Y11256D1*
X14805D1*
Y12131D1*
X14973D1*
X13553Y13689D2*
X13479Y13735D1*
X13411Y13795D1*
X13353Y13865D1*
X13315Y13926D1*
X13252Y13830D1*
X13207Y13783D1*
X13158Y13740D1*
X13081Y13692D1*
X13180Y13626D1*
X13228Y13582D1*
X13270Y13533D1*
X13320Y13452D1*
X13370Y13533D1*
X13413Y13582D1*
X13460Y13626D1*
X13553Y13688D1*
X19604Y13953D2*
X19605Y13729D1*
X20411Y12922D1*
Y14220D1*
X19606D1*
X19605Y13738D1*
X26855Y9169D2*
X26794Y9154D1*
X26730Y9149D1*
X26665Y9156D1*
X26603Y9175D1*
X26545Y9204D1*
X26491Y9244D1*
X26424Y9196D1*
X26365Y9169D1*
X26302Y9154D1*
X26237Y9149D1*
X26173Y9156D1*
X26098Y9181D1*
X26092Y9063D1*
X26074Y9001D1*
X26045Y8943D1*
X25997Y8884D1*
X24536Y7423D1*
Y7132D1*
X24620Y7155D1*
X24685Y7160D1*
X24749Y7156D1*
X24813Y7144D1*
X24875Y7123D1*
X24932Y7093D1*
X24986Y7056D1*
X25033Y7012D1*
X25074Y6961D1*
X25108Y6906D1*
X25134Y6846D1*
X25151Y6784D1*
X25160Y6709D1*
X25352Y6516D1*
X25368Y6585D1*
X25393Y6646D1*
X25425Y6702D1*
X25465Y6753D1*
X25511Y6799D1*
X25564Y6837D1*
X25621Y6868D1*
X25682Y6891D1*
X25745Y6905D1*
X25810Y6910D1*
X25874Y6906D1*
X25938Y6894D1*
X26000Y6873D1*
X26057Y6843D1*
X26133Y6785D1*
X26690D1*
X26755Y6779D1*
X26817Y6761D1*
X26875Y6732D1*
X26934Y6684D1*
X27473Y6145D1*
X27515Y6095D1*
X27547Y6036D1*
X27562Y6026D1*
X27636Y6048D1*
X27714Y6057D1*
X27746Y6056D1*
X27745Y8505D1*
X27033Y7794D1*
X26911Y7672D1*
X26893Y7562D1*
X26871Y7501D1*
X26841Y7443D1*
X26803Y7390D1*
X26758Y7343D1*
X26707Y7303D1*
X26651Y7270D1*
X26591Y7245D1*
X26528Y7228D1*
X26464Y7220D1*
X26399Y7222D1*
X26335Y7232D1*
X26273Y7251D1*
X26214Y7278D1*
X26159Y7313D1*
X26110Y7355D1*
X26067Y7404D1*
X26031Y7458D1*
X26003Y7517D1*
X25984Y7579D1*
X25973Y7643D1*
X25971Y7708D1*
X25977Y7772D1*
X25993Y7835D1*
X26018Y7896D1*
X26050Y7952D1*
X26090Y8003D1*
X26136Y8049D1*
X26189Y8087D1*
X26246Y8118D1*
X26307Y8141D1*
X26370Y8155D1*
X26420Y8159D1*
X26988Y8725D1*
X26942Y8779D1*
X26906Y8833D1*
X26878Y8892D1*
X26859Y8954D1*
X26848Y9018D1*
X26846Y9083D1*
X26858Y9169D1*
X14904Y5625D2*
X14887Y5496D1*
X14852Y5371D1*
X14801Y5252D1*
X14735Y5140D1*
X14654Y5038D1*
X14560Y4949D1*
X14455Y4872D1*
X14340Y4811D1*
X14219Y4765D1*
X14092Y4736D1*
X13963Y4724D1*
X13833Y4730D1*
X13705Y4753D1*
X13582Y4793D1*
X13465Y4849D1*
X13356Y4920D1*
X13258Y5005D1*
X13172Y5103D1*
X13101Y5211D1*
X13044Y5328D1*
X13004Y5452D1*
X12980Y5579D1*
X12974Y5709D1*
X12985Y5839D1*
X13014Y5965D1*
X13059Y6087D1*
X13120Y6202D1*
X13196Y6307D1*
X13286Y6401D1*
X13387Y6483D1*
X13498Y6550D1*
X13618Y6601D1*
X13743Y6636D1*
X13871Y6654D1*
X14001D1*
X14130Y6637D1*
X14255Y6603D1*
X14375Y6553D1*
X14487Y6487D1*
X14589Y6406D1*
X14679Y6313D1*
X14756Y6208D1*
X14818Y6094D1*
X14864Y5972D1*
X14894Y5846D1*
X14906Y5717D1*
X14904Y5625D1*
X15098Y5507D2*
D13*
X16032Y4534D1*
Y5507D2*
X15098Y4534D1*
X18788Y12293D2*
X19235Y11885D1*
X24908Y15157D2*
X25375Y14670D1*
X25842Y15157D2*
X25375Y14670D1*
X29308Y11187D2*
X29794Y10720D1*
X24689Y11187D2*
X25176Y10720D1*
X22139Y5759D2*
X22606Y5272D1*
X22139Y5759D2*
X21672Y5272D1*
X21414Y11130D2*
X22466Y10000D1*
Y11130D2*
X21940Y10565D1*
X27215Y14765D2*
X27780Y14200D1*
X28345Y14765D2*
X27215Y13635D1*
X13416Y14590D2*
X14215Y13790D1*
Y14590D2*
X13416Y13790D1*
X21892Y13098D2*
X23373Y11735D1*
X14806Y12131D2*
X15543Y11256D1*
X15174Y11693D2*
X14806Y11256D1*
X12815Y8690D2*
X12496Y8302D1*
X13996Y8690D2*
X14316Y8302D1*
X10860Y14953D2*
X11209Y14565D1*
X11557Y14953D2*
X11209Y14565D1*
D17*
X29065Y12565D3*
Y13746D3*
Y14337D3*
D18*
X29478Y12014D3*
X30030D3*
X29478Y14888D3*
X30030D3*
D19*
X15565Y5690D3*
Y5021D3*
D20*
X18599Y8504D3*
Y7993D3*
D21*
X18723Y11885D3*
X19235D3*
D19*
X25376Y12192D3*
Y11523D3*
X25375Y14001D3*
Y14670D3*
D22*
X29125Y10720D3*
X29794D3*
X25845D3*
X25176D3*
D19*
X22139Y6428D3*
Y5759D3*
D23*
X21940Y10565D3*
X21192D3*
D24*
X18026Y6890D3*
X18419D3*
X18813D3*
X19207D3*
X19601D3*
X19994D3*
D25*
X17632Y6063D3*
X20388D3*
D26*
X27780Y14200D3*
D27*
Y13200D3*
Y12200D3*
D29*
X26692Y12193D3*
X25905D3*
D19*
X15565Y7690D3*
Y8359D3*
D22*
X17065Y7690D3*
X16396D3*
X20815Y8440D3*
X21484D3*
X20815Y7815D3*
X21484D3*
D19*
X15565Y6440D3*
Y7109D3*
D22*
X21315Y9690D3*
X20646D3*
D19*
X15440Y12565D3*
Y13235D3*
D30*
X10690Y9940D3*
X8040Y7290D3*
Y12590D3*
D27*
X13815Y14190D3*
X13820Y13190D3*
Y12190D3*
X12815Y14190D3*
X12820Y13190D3*
Y12190D3*
D31*
X16815Y14565D3*
Y14065D3*
Y13565D3*
Y13065D3*
X18941D3*
Y13565D3*
Y14065D3*
Y14565D3*
D33*
X17690Y10940D3*
Y10684D3*
Y10428D3*
Y10172D3*
Y9916D3*
Y9660D3*
Y9405D3*
D34*
X18084Y9011D3*
X18340D3*
X18596D3*
X18852D3*
X19108D3*
X19364D3*
X19620D3*
D33*
X20013Y9405D3*
Y9660D3*
Y9916D3*
Y10172D3*
Y10428D3*
Y10684D3*
Y10940D3*
D34*
X19620Y11334D3*
X19364D3*
X19108D3*
X18852D3*
X18596D3*
X18340D3*
X18084D3*
D35*
X18852Y10172D3*
D37*
X24530Y12200D3*
Y13995D3*
D38*
X21892Y13098D3*
D39*
X15686Y11693D3*
X15174D3*
X15430Y10867D3*
D41*
X29690Y9940D3*
X29198D3*
X28706D3*
X28214D3*
X27721D3*
X27229D3*
X26737D3*
X26245D3*
X25753D3*
X25261D3*
X24769D3*
X24277D3*
X23784D3*
D42*
X22918Y9290D3*
Y8798D3*
Y8306D3*
Y7814D3*
Y7322D3*
Y6830D3*
Y6338D3*
Y5846D3*
D41*
X23784Y5196D3*
X24277D3*
X24769D3*
X25261D3*
X25753D3*
X26245D3*
X26737D3*
X27229D3*
X27721D3*
D43*
X12815Y8690D3*
X13012D3*
X13209D3*
X13406D3*
X13603D3*
X13800D3*
X13996D3*
Y10186D3*
X13800D3*
X13603D3*
X13406D3*
X13209D3*
X13012D3*
X12815D3*
D44*
X10815Y14565D3*
Y13502D3*
X11209D3*
Y14565D3*
X11602D3*
Y13502D3*
D45*
X11209Y14034D3*
M02*
