G04 DipTrace 2.4.0.2*
%INTopAssy.gbr*%
%MOIN*%
%ADD10C,0.0098*%
%ADD11C,0.0055*%
%ADD17R,0.0591X0.0276*%
%ADD18R,0.0315X0.0433*%
%ADD19R,0.0394X0.0433*%
%ADD20R,0.0276X0.0354*%
%ADD21R,0.0354X0.0276*%
%ADD22R,0.0433X0.0394*%
%ADD23R,0.0512X0.0591*%
%ADD24R,0.0236X0.0787*%
%ADD25R,0.0276X0.1654*%
%ADD26R,0.059X0.059*%
%ADD27C,0.0591*%
%ADD29R,0.0394X0.0394*%
%ADD30C,0.1575*%
%ADD31R,0.0787X0.0236*%
%ADD32C,0.0157*%
%ADD33O,0.0335X0.0138*%
%ADD34O,0.0138X0.0335*%
%ADD35R,0.1732X0.1732*%
%ADD36C,0.0154*%
%ADD37R,0.1083X0.0394*%
%ADD38R,0.2421X0.2185*%
%ADD39R,0.0197X0.0335*%
%ADD40C,0.0005*%
%ADD41O,0.0335X0.1181*%
%ADD42O,0.1181X0.0335*%
%ADD43R,0.0098X0.0236*%
%ADD44R,0.0157X0.0236*%
%ADD45R,0.0945X0.0591*%
%ADD107C,0.0062*%
%FSLAX44Y44*%
G04*
G70*
G90*
G75*
G01*
%LNTopAssy*%
%LPD*%
X28770Y15104D2*
D10*
X30187D1*
Y11797D1*
X28770D1*
Y15104D1*
D17*
X29065Y12565D3*
Y13746D3*
Y14337D3*
D18*
X29478Y12014D3*
X30030D3*
X29478Y14888D3*
X30030D3*
X15408Y6064D2*
D10*
X15722D1*
X15368D2*
X15762D1*
Y4804D1*
X15368D1*
Y6064D1*
D19*
X15565Y5690D3*
Y5021D3*
X18501Y8839D2*
D10*
X18698D1*
X18462D2*
X18737D1*
Y7816D1*
X18462D1*
Y8839D1*
D20*
X18599Y8504D3*
Y7993D3*
X18389Y11787D2*
D10*
Y11983D1*
Y12023D2*
X19412D1*
Y11747D1*
X18389D1*
Y12023D1*
D21*
X18723Y11885D3*
X19235D3*
X25219Y12566D2*
D10*
X25534D1*
X25180D2*
X25573D1*
Y11307D1*
X25180D1*
Y12566D1*
D19*
X25376Y12192D3*
Y11523D3*
X25532Y13627D2*
D10*
X25217D1*
X25178Y14887D2*
X25572D1*
Y13627D1*
X25178D1*
Y14887D1*
D19*
X25375Y14001D3*
Y14670D3*
X28752Y10563D2*
D10*
Y10877D1*
Y10917D2*
X30011D1*
Y10523D1*
X28752D1*
Y10917D1*
D22*
X29125Y10720D3*
X29794D3*
X26218Y10877D2*
D10*
Y10563D1*
X24959Y10917D2*
X26218D1*
Y10523D1*
X24959D1*
Y10917D1*
D22*
X25845Y10720D3*
X25176D3*
X21981Y6802D2*
D10*
X22296D1*
X21942D2*
X22336D1*
Y5542D1*
X21942D1*
Y6802D1*
D19*
X22139Y6428D3*
Y5759D3*
X22314Y10821D2*
D10*
Y10309D1*
X20936Y10860D2*
X22314D1*
Y10270D1*
X20936D1*
Y10860D1*
D23*
X21940Y10565D3*
X21192D3*
X16687Y4528D2*
D10*
X21333D1*
X16687Y7284D2*
X21333D1*
Y4528D1*
X16687D1*
Y7284D1*
D24*
X18026Y6890D3*
X18419D3*
X18813D3*
X19207D3*
X19601D3*
X19994D3*
D25*
X17632Y6063D3*
X20388D3*
X27485Y14495D2*
D10*
X28075D1*
Y11905D1*
X27485D1*
Y14495D1*
D26*
X27780Y14200D3*
D27*
Y13200D3*
Y12200D3*
X26378Y12036D2*
D10*
X26219D1*
X26378Y12351D2*
X26219D1*
X25708Y12390D2*
X26889D1*
Y11996D1*
X25708D1*
Y12390D1*
D29*
X26692Y12193D3*
X25905D3*
X15368Y8576D2*
D10*
X15762D1*
Y7473D1*
X15368D1*
Y8576D1*
D19*
X15565Y7690D3*
Y8359D3*
X16179Y7887D2*
D10*
X17282D1*
Y7493D1*
X16179D1*
Y7887D1*
D22*
X17065Y7690D3*
X16396D3*
X20598Y8637D2*
D10*
X21701D1*
Y8243D1*
X20598D1*
Y8637D1*
D22*
X20815Y8440D3*
X21484D3*
X20598Y8012D2*
D10*
X21701D1*
Y7618D1*
X20598D1*
Y8012D1*
D22*
X20815Y7815D3*
X21484D3*
X15368Y7326D2*
D10*
X15762D1*
Y6223D1*
X15368D1*
Y7326D1*
D19*
X15565Y6440D3*
Y7109D3*
X20429Y9887D2*
D10*
X21532D1*
Y9493D1*
X20429D1*
Y9887D1*
D22*
X21315Y9690D3*
X20646D3*
X15243Y13451D2*
D10*
X15637D1*
Y12349D1*
X15243D1*
Y13451D1*
D19*
X15440Y12565D3*
Y13235D3*
X4325Y9940D2*
D10*
G02X4325Y9940I3715J0D01*
G01*
Y13655D2*
X11755D1*
Y6225D1*
X4325D1*
Y13655D1*
D30*
X10690Y9940D3*
X8040Y7290D3*
Y12590D3*
D27*
X13815Y14190D3*
X13820Y13190D3*
Y12190D3*
X12815Y14190D3*
X12820Y13190D3*
Y12190D3*
X17367Y14799D2*
D10*
Y12831D1*
X18390Y14799D2*
Y12831D1*
X17367D2*
X18390D1*
X17681Y14799D2*
X17367D1*
X18075D2*
X18390D1*
X17681D2*
G03X18075Y14799I197J0D01*
G01*
X16422D2*
X19335D1*
Y12831D1*
X16422D1*
Y14799D1*
D31*
X16815Y14565D3*
Y14065D3*
Y13565D3*
Y13065D3*
X18941D3*
Y13565D3*
Y14065D3*
Y14565D3*
X17671Y9188D2*
D10*
Y8991D1*
X17868D1*
X20033Y11353D2*
X19836D1*
X20033D2*
Y11157D1*
Y8991D2*
Y9188D1*
Y8991D2*
X19836D1*
X17671Y11157D2*
X17868Y11353D1*
D32*
X17319Y10940D3*
X17241Y11501D2*
D10*
X20181D1*
Y8844D1*
X17241D1*
Y11501D1*
D33*
X17690Y10940D3*
Y10684D3*
Y10428D3*
Y10172D3*
Y9916D3*
Y9660D3*
Y9405D3*
D34*
X18084Y9011D3*
X18340D3*
X18596D3*
X18852D3*
X19108D3*
X19364D3*
X19620D3*
D33*
X20013Y9405D3*
Y9660D3*
Y9916D3*
Y10172D3*
Y10428D3*
Y10684D3*
Y10940D3*
D34*
X19620Y11334D3*
X19364D3*
X19108D3*
X18852D3*
X18596D3*
X18340D3*
X18084D3*
D35*
X18852Y10172D3*
X23821Y11798D2*
D10*
Y14397D1*
X21065Y11798D2*
X23821D1*
X21065D2*
Y11877D1*
Y14397D2*
X23821D1*
X21065D2*
Y14318D1*
D36*
X24971Y11808D3*
X20682Y14397D2*
D10*
X25071D1*
Y11731D1*
X20682D1*
Y14397D1*
D37*
X24530Y12200D3*
Y13995D3*
D38*
X21892Y13098D3*
D36*
X15955Y11722D3*
X15824Y11378D2*
D10*
X15036D1*
Y11182D1*
X15824D1*
Y11378D1*
X15036Y11861D2*
X16032D1*
Y10699D1*
X15036D1*
Y11861D1*
D39*
X15686Y11693D3*
X15174D3*
X15430Y10867D3*
X30044Y9940D2*
D40*
X22918D1*
Y5196D1*
X30044D1*
Y9940D1*
X22328Y10531D2*
D10*
X30044D1*
Y4605D1*
X22328D1*
Y10531D1*
D41*
X29690Y9940D3*
X29198D3*
X28706D3*
X28214D3*
X27721D3*
X27229D3*
X26737D3*
X26245D3*
X25753D3*
X25261D3*
X24769D3*
X24277D3*
X23784D3*
D42*
X22918Y9290D3*
Y8798D3*
Y8306D3*
Y7814D3*
Y7322D3*
Y6830D3*
Y6338D3*
Y5846D3*
D41*
X23784Y5196D3*
X24277D3*
X24769D3*
X25261D3*
X25753D3*
X26245D3*
X26737D3*
X27229D3*
X27721D3*
X12815Y9950D2*
D10*
X13996D1*
Y8926D1*
X12815D1*
Y9950D1*
X12766Y10304D2*
X14046D1*
Y8572D1*
X12766D1*
Y10304D1*
D43*
X12815Y8690D3*
X13012D3*
X13209D3*
X13406D3*
X13603D3*
X13800D3*
X13996D3*
Y10186D3*
X13800D3*
X13603D3*
X13406D3*
X13209D3*
X13012D3*
X12815D3*
X10736Y14683D2*
D10*
X11681D1*
Y13384D1*
X10736D1*
Y14683D1*
D44*
X10815Y14565D3*
Y13502D3*
X11209D3*
Y14565D3*
X11602D3*
Y13502D3*
D45*
X11209Y14034D3*
X29235Y15690D2*
D107*
Y15288D1*
X29407D1*
X29465Y15308D1*
X29484Y15327D1*
X29503Y15365D1*
Y15422D1*
X29484Y15461D1*
X29465Y15480D1*
X29407Y15499D1*
X29465Y15518D1*
X29484Y15537D1*
X29503Y15575D1*
Y15614D1*
X29484Y15652D1*
X29465Y15671D1*
X29407Y15690D1*
X29235D1*
Y15499D2*
X29407D1*
X29626Y15613D2*
X29665Y15633D1*
X29722Y15690D1*
Y15288D1*
X14878Y5468D2*
X14840Y5449D1*
X14801Y5410D1*
X14782Y5372D1*
Y5296D1*
X14801Y5257D1*
X14840Y5219D1*
X14878Y5200D1*
X14935Y5181D1*
X15031D1*
X15088Y5200D1*
X15127Y5219D1*
X15165Y5257D1*
X15184Y5296D1*
Y5372D1*
X15165Y5410D1*
X15127Y5449D1*
X15088Y5468D1*
X14859Y5591D2*
X14840Y5630D1*
X14783Y5687D1*
X15184D1*
X17971Y8275D2*
X17933Y8256D1*
X17895Y8218D1*
X17876Y8180D1*
Y8103D1*
X17895Y8065D1*
X17933Y8027D1*
X17971Y8007D1*
X18029Y7988D1*
X18125D1*
X18182Y8007D1*
X18220Y8027D1*
X18258Y8065D1*
X18278Y8103D1*
Y8180D1*
X18258Y8218D1*
X18220Y8256D1*
X18182Y8275D1*
X17972Y8418D2*
X17953D1*
X17914Y8437D1*
X17895Y8456D1*
X17876Y8495D1*
Y8571D1*
X17895Y8609D1*
X17914Y8628D1*
X17953Y8648D1*
X17991D1*
X18029Y8628D1*
X18086Y8590D1*
X18278Y8399D1*
Y8667D1*
X18848Y12513D2*
X18829Y12551D1*
X18791Y12589D1*
X18753Y12608D1*
X18676D1*
X18638Y12589D1*
X18600Y12551D1*
X18580Y12513D1*
X18561Y12455D1*
Y12360D1*
X18580Y12303D1*
X18600Y12264D1*
X18638Y12226D1*
X18676Y12207D1*
X18753D1*
X18791Y12226D1*
X18829Y12264D1*
X18848Y12303D1*
X19010Y12608D2*
X19220D1*
X19106Y12455D1*
X19163D1*
X19201Y12436D1*
X19220Y12417D1*
X19240Y12360D1*
Y12322D1*
X19220Y12264D1*
X19182Y12226D1*
X19125Y12207D1*
X19067D1*
X19010Y12226D1*
X18991Y12245D1*
X18972Y12283D1*
X25315Y13056D2*
X25296Y13094D1*
X25257Y13133D1*
X25219Y13152D1*
X25143D1*
X25104Y13133D1*
X25066Y13094D1*
X25047Y13056D1*
X25028Y12999D1*
Y12903D1*
X25047Y12846D1*
X25066Y12807D1*
X25104Y12769D1*
X25143Y12750D1*
X25219D1*
X25257Y12769D1*
X25296Y12807D1*
X25315Y12846D1*
X25630Y12750D2*
Y13151D1*
X25438Y12884D1*
X25725D1*
X25323Y15377D2*
X25304Y15415D1*
X25265Y15453D1*
X25227Y15472D1*
X25151D1*
X25112Y15453D1*
X25074Y15415D1*
X25055Y15377D1*
X25036Y15319D1*
Y15223D1*
X25055Y15166D1*
X25074Y15128D1*
X25112Y15090D1*
X25151Y15070D1*
X25227D1*
X25265Y15090D1*
X25304Y15128D1*
X25323Y15166D1*
X25676Y15472D2*
X25485D1*
X25465Y15300D1*
X25485Y15319D1*
X25542Y15338D1*
X25599D1*
X25657Y15319D1*
X25695Y15281D1*
X25714Y15223D1*
Y15185D1*
X25695Y15128D1*
X25657Y15089D1*
X25599Y15070D1*
X25542D1*
X25485Y15089D1*
X25465Y15109D1*
X25446Y15147D1*
X28261Y10677D2*
X28223Y10658D1*
X28185Y10620D1*
X28166Y10582D1*
Y10505D1*
X28185Y10467D1*
X28223Y10429D1*
X28261Y10410D1*
X28319Y10391D1*
X28415D1*
X28472Y10410D1*
X28510Y10429D1*
X28548Y10467D1*
X28568Y10505D1*
Y10582D1*
X28548Y10620D1*
X28510Y10658D1*
X28472Y10677D1*
X28223Y11030D2*
X28185Y11011D1*
X28166Y10954D1*
Y10916D1*
X28185Y10858D1*
X28243Y10820D1*
X28338Y10801D1*
X28434D1*
X28510Y10820D1*
X28549Y10858D1*
X28568Y10916D1*
Y10935D1*
X28549Y10992D1*
X28510Y11030D1*
X28453Y11049D1*
X28434D1*
X28376Y11030D1*
X28338Y10992D1*
X28319Y10935D1*
Y10916D1*
X28338Y10858D1*
X28376Y10820D1*
X28434Y10801D1*
X24469Y10668D2*
X24431Y10649D1*
X24392Y10610D1*
X24373Y10572D1*
Y10496D1*
X24392Y10457D1*
X24431Y10419D1*
X24469Y10400D1*
X24526Y10381D1*
X24622D1*
X24679Y10400D1*
X24718Y10419D1*
X24756Y10457D1*
X24775Y10496D1*
Y10572D1*
X24756Y10610D1*
X24718Y10649D1*
X24679Y10668D1*
X24775Y10868D2*
X24374Y11059D1*
Y10791D1*
X22087Y5311D2*
X22068Y5349D1*
X22029Y5388D1*
X21991Y5407D1*
X21915D1*
X21876Y5388D1*
X21838Y5349D1*
X21819Y5311D1*
X21800Y5254D1*
Y5158D1*
X21819Y5101D1*
X21838Y5062D1*
X21876Y5024D1*
X21915Y5005D1*
X21991D1*
X22029Y5024D1*
X22068Y5062D1*
X22087Y5101D1*
X22306Y5406D2*
X22249Y5387D1*
X22229Y5349D1*
Y5311D1*
X22249Y5273D1*
X22287Y5253D1*
X22363Y5234D1*
X22421Y5215D1*
X22459Y5177D1*
X22478Y5139D1*
Y5081D1*
X22459Y5043D1*
X22440Y5024D1*
X22382Y5005D1*
X22306D1*
X22249Y5024D1*
X22229Y5043D1*
X22210Y5081D1*
Y5139D1*
X22229Y5177D1*
X22268Y5215D1*
X22325Y5234D1*
X22401Y5253D1*
X22440Y5273D1*
X22459Y5311D1*
Y5349D1*
X22440Y5387D1*
X22382Y5406D1*
X22306D1*
X21381Y11446D2*
Y11044D1*
X21515D1*
X21573Y11064D1*
X21611Y11102D1*
X21630Y11140D1*
X21649Y11197D1*
Y11293D1*
X21630Y11351D1*
X21611Y11389D1*
X21573Y11427D1*
X21515Y11446D1*
X21381D1*
X21773Y11369D2*
X21811Y11389D1*
X21869Y11446D1*
Y11044D1*
X16101Y5662D2*
X16503D1*
X16101Y5930D2*
X16503D1*
X16293Y5662D2*
Y5930D1*
X16178Y6054D2*
X16159Y6092D1*
X16102Y6149D1*
X16503D1*
X27450Y15081D2*
Y14679D1*
X27718Y15081D2*
Y14679D1*
X27450Y14889D2*
X27718D1*
X27861Y14985D2*
Y15004D1*
X27880Y15042D1*
X27899Y15061D1*
X27938Y15080D1*
X28014D1*
X28052Y15061D1*
X28071Y15042D1*
X28091Y15004D1*
Y14966D1*
X28071Y14927D1*
X28033Y14870D1*
X27842Y14679D1*
X28110D1*
X26074Y12976D2*
Y12574D1*
X26304D1*
X26427Y12899D2*
X26466Y12918D1*
X26523Y12975D1*
Y12574D1*
X14974Y7781D2*
Y7953D1*
X14954Y8010D1*
X14935Y8030D1*
X14897Y8049D1*
X14859D1*
X14821Y8030D1*
X14801Y8010D1*
X14782Y7953D1*
Y7781D1*
X15184D1*
X14974Y7915D2*
X15184Y8049D1*
X14859Y8172D2*
X14840Y8211D1*
X14783Y8268D1*
X15184D1*
X16401Y8281D2*
X16573D1*
X16630Y8301D1*
X16650Y8320D1*
X16669Y8358D1*
Y8396D1*
X16650Y8434D1*
X16630Y8454D1*
X16573Y8473D1*
X16401D1*
Y8071D1*
X16535Y8281D2*
X16669Y8071D1*
X16812Y8377D2*
Y8396D1*
X16831Y8434D1*
X16850Y8453D1*
X16888Y8472D1*
X16965D1*
X17003Y8453D1*
X17022Y8434D1*
X17041Y8396D1*
Y8358D1*
X17022Y8319D1*
X16984Y8262D1*
X16792Y8071D1*
X17060D1*
X20820Y9031D2*
X20992D1*
X21049Y9051D1*
X21069Y9070D1*
X21088Y9108D1*
Y9146D1*
X21069Y9184D1*
X21049Y9204D1*
X20992Y9223D1*
X20820D1*
Y8821D1*
X20954Y9031D2*
X21088Y8821D1*
X21250Y9222D2*
X21460D1*
X21345Y9069D1*
X21403D1*
X21441Y9050D1*
X21460Y9031D1*
X21479Y8974D1*
Y8936D1*
X21460Y8878D1*
X21422Y8840D1*
X21364Y8821D1*
X21307D1*
X21250Y8840D1*
X21231Y8859D1*
X21211Y8897D1*
X20204Y7476D2*
Y7648D1*
X20185Y7705D1*
X20166Y7725D1*
X20128Y7744D1*
X20089D1*
X20051Y7725D1*
X20032Y7705D1*
X20013Y7648D1*
Y7476D1*
X20415D1*
X20204Y7610D2*
X20415Y7744D1*
Y8059D2*
X20013D1*
X20281Y7867D1*
Y8154D1*
X14974Y6445D2*
Y6617D1*
X14954Y6674D1*
X14935Y6694D1*
X14897Y6713D1*
X14859D1*
X14821Y6694D1*
X14801Y6674D1*
X14782Y6617D1*
Y6445D1*
X15184D1*
X14974Y6579D2*
X15184Y6713D1*
X14783Y7066D2*
Y6875D1*
X14955Y6856D1*
X14936Y6875D1*
X14916Y6932D1*
Y6989D1*
X14936Y7047D1*
X14974Y7085D1*
X15031Y7104D1*
X15069D1*
X15127Y7085D1*
X15165Y7047D1*
X15184Y6989D1*
Y6932D1*
X15165Y6875D1*
X15146Y6856D1*
X15108Y6836D1*
X21859Y9370D2*
Y9542D1*
X21839Y9600D1*
X21820Y9619D1*
X21782Y9638D1*
X21744D1*
X21706Y9619D1*
X21686Y9600D1*
X21667Y9542D1*
Y9370D1*
X22069D1*
X21859Y9504D2*
X22069Y9638D1*
X21725Y9991D2*
X21687Y9972D1*
X21668Y9914D1*
Y9876D1*
X21687Y9819D1*
X21744Y9780D1*
X21840Y9761D1*
X21935D1*
X22012Y9780D1*
X22050Y9819D1*
X22069Y9876D1*
Y9895D1*
X22050Y9952D1*
X22012Y9991D1*
X21954Y10010D1*
X21935D1*
X21878Y9991D1*
X21840Y9952D1*
X21821Y9895D1*
Y9876D1*
X21840Y9819D1*
X21878Y9780D1*
X21935Y9761D1*
X14849Y12570D2*
Y12742D1*
X14829Y12800D1*
X14810Y12819D1*
X14772Y12838D1*
X14734D1*
X14696Y12819D1*
X14676Y12800D1*
X14657Y12742D1*
Y12570D1*
X15059D1*
X14849Y12704D2*
X15059Y12838D1*
Y13038D2*
X14658Y13230D1*
Y12962D1*
X8064Y14183D2*
X8026Y14221D1*
X7969Y14240D1*
X7892D1*
X7835Y14221D1*
X7796Y14183D1*
Y14145D1*
X7816Y14106D1*
X7835Y14087D1*
X7873Y14068D1*
X7988Y14030D1*
X8026Y14011D1*
X8045Y13991D1*
X8064Y13953D1*
Y13896D1*
X8026Y13858D1*
X7969Y13838D1*
X7892D1*
X7835Y13858D1*
X7796Y13896D1*
X8188Y14163D2*
X8226Y14183D1*
X8284Y14240D1*
Y13838D1*
X13706Y15071D2*
Y14669D1*
X13572Y15071D2*
X13840D1*
X13963Y14994D2*
X14002Y15014D1*
X14059Y15071D1*
Y14669D1*
X12610Y15071D2*
Y14669D1*
X12476Y15071D2*
X12744D1*
X13059Y14669D2*
Y15071D1*
X12868Y14803D1*
X13155D1*
X17635Y15385D2*
Y15098D1*
X17654Y15041D1*
X17692Y15003D1*
X17750Y14983D1*
X17788D1*
X17845Y15003D1*
X17884Y15041D1*
X17903Y15098D1*
Y15385D1*
X18026Y15308D2*
X18065Y15328D1*
X18122Y15385D1*
Y14983D1*
X16655Y9843D2*
X16942D1*
X16999Y9862D1*
X17037Y9900D1*
X17057Y9958D1*
Y9996D1*
X17037Y10053D1*
X16999Y10092D1*
X16942Y10111D1*
X16655D1*
X16751Y10253D2*
X16732D1*
X16693Y10273D1*
X16674Y10292D1*
X16655Y10330D1*
Y10406D1*
X16674Y10445D1*
X16693Y10464D1*
X16732Y10483D1*
X16770D1*
X16808Y10464D1*
X16865Y10425D1*
X17057Y10234D1*
Y10502D1*
X22547Y14982D2*
Y14695D1*
X22566Y14638D1*
X22604Y14600D1*
X22662Y14581D1*
X22700D1*
X22757Y14600D1*
X22796Y14638D1*
X22815Y14695D1*
Y14982D1*
X22977D2*
X23187D1*
X23072Y14829D1*
X23130D1*
X23168Y14810D1*
X23187Y14791D1*
X23206Y14734D1*
Y14695D1*
X23187Y14638D1*
X23149Y14600D1*
X23091Y14581D1*
X23034D1*
X22977Y14600D1*
X22958Y14619D1*
X22938Y14657D1*
X14450Y10941D2*
X14737D1*
X14795Y10960D1*
X14833Y10998D1*
X14852Y11056D1*
Y11094D1*
X14833Y11151D1*
X14795Y11190D1*
X14737Y11209D1*
X14450D1*
X14852Y11524D2*
X14451D1*
X14718Y11332D1*
Y11619D1*
X25856Y4470D2*
Y4183D1*
X25875Y4125D1*
X25914Y4087D1*
X25971Y4068D1*
X26009D1*
X26067Y4087D1*
X26105Y4125D1*
X26124Y4183D1*
Y4470D1*
X26477Y4469D2*
X26286D1*
X26267Y4297D1*
X26286Y4316D1*
X26344Y4336D1*
X26401D1*
X26458Y4316D1*
X26497Y4278D1*
X26516Y4221D1*
Y4183D1*
X26497Y4125D1*
X26458Y4087D1*
X26401Y4068D1*
X26344D1*
X26286Y4087D1*
X26267Y4106D1*
X26248Y4144D1*
X13086Y10890D2*
Y10603D1*
X13105Y10546D1*
X13143Y10507D1*
X13201Y10488D1*
X13239D1*
X13296Y10507D1*
X13335Y10546D1*
X13354Y10603D1*
Y10890D1*
X13707Y10832D2*
X13688Y10871D1*
X13630Y10890D1*
X13592D1*
X13535Y10871D1*
X13496Y10813D1*
X13477Y10718D1*
Y10622D1*
X13496Y10546D1*
X13535Y10507D1*
X13592Y10488D1*
X13611D1*
X13668Y10507D1*
X13707Y10546D1*
X13726Y10603D1*
Y10622D1*
X13707Y10679D1*
X13668Y10718D1*
X13611Y10737D1*
X13592D1*
X13535Y10718D1*
X13496Y10679D1*
X13477Y10622D1*
X10879Y15269D2*
Y14982D1*
X10898Y14924D1*
X10936Y14886D1*
X10994Y14867D1*
X11032D1*
X11089Y14886D1*
X11128Y14924D1*
X11147Y14982D1*
Y15269D1*
X11347Y14867D2*
X11538Y15268D1*
X11270D1*
X3940Y5940D2*
D11*
Y13940D1*
X10940Y15940D1*
X30440D1*
Y3940D1*
X10940D1*
X3940Y5940D1*
M02*
