G04 DipTrace 2.4.0.2*
%INTopMask.gbr*%
%MOIN*%
%ADD48C,0.0394*%
%ADD49C,0.08*%
%ADD55R,0.1025X0.0671*%
%ADD57R,0.0237X0.0316*%
%ADD59R,0.0178X0.0316*%
%ADD61O,0.1261X0.0415*%
%ADD63O,0.0415X0.1261*%
%ADD65R,0.0277X0.0415*%
%ADD67R,0.2501X0.2265*%
%ADD69R,0.1163X0.0474*%
%ADD71R,0.1812X0.1812*%
%ADD73O,0.0218X0.0415*%
%ADD75O,0.0415X0.0218*%
%ADD77R,0.0867X0.0316*%
%ADD79C,0.1655*%
%ADD81R,0.0474X0.0474*%
%ADD85C,0.0671*%
%ADD87R,0.067X0.067*%
%ADD89R,0.0356X0.1734*%
%ADD91R,0.0316X0.0867*%
%ADD93R,0.0592X0.0671*%
%ADD95R,0.0513X0.0474*%
%ADD97R,0.0434X0.0356*%
%ADD99R,0.0356X0.0434*%
%ADD101R,0.0474X0.0513*%
%ADD103R,0.0395X0.0513*%
%ADD105R,0.0671X0.0356*%
%FSLAX44Y44*%
G04*
G70*
G90*
G75*
G01*
%LNTopMask*%
%LPD*%
D105*
X29065Y12565D3*
Y13746D3*
Y14337D3*
D103*
X29478Y12014D3*
X30030D3*
X29478Y14888D3*
X30030D3*
D48*
X29754Y12860D3*
Y14041D3*
D101*
X15565Y5690D3*
Y5021D3*
D99*
X18599Y8504D3*
Y7993D3*
D97*
X18723Y11885D3*
X19235D3*
D101*
X25376Y12192D3*
Y11523D3*
X25375Y14001D3*
Y14670D3*
D95*
X29125Y10720D3*
X29794D3*
X25845D3*
X25176D3*
D101*
X22139Y6428D3*
Y5759D3*
D93*
X21940Y10565D3*
X21192D3*
D91*
X18026Y6890D3*
X18419D3*
X18813D3*
X19207D3*
X19601D3*
X19994D3*
D89*
X17632Y6063D3*
X20388D3*
D87*
X27780Y14200D3*
D85*
Y13200D3*
Y12200D3*
D49*
X13940Y5690D3*
D81*
X26692Y12193D3*
X25905D3*
D101*
X15565Y7690D3*
Y8359D3*
D95*
X17065Y7690D3*
X16396D3*
X20815Y8440D3*
X21484D3*
X20815Y7815D3*
X21484D3*
D101*
X15565Y6440D3*
Y7109D3*
D95*
X21315Y9690D3*
X20646D3*
D101*
X15440Y12565D3*
Y13235D3*
D79*
X10690Y9940D3*
X8040Y7290D3*
Y12590D3*
D85*
X13815Y14190D3*
X13820Y13190D3*
Y12190D3*
X12815Y14190D3*
X12820Y13190D3*
Y12190D3*
D77*
X16815Y14565D3*
Y14065D3*
Y13565D3*
Y13065D3*
X18941D3*
Y13565D3*
Y14065D3*
Y14565D3*
D75*
X17690Y10940D3*
Y10684D3*
Y10428D3*
Y10172D3*
Y9916D3*
Y9660D3*
Y9405D3*
D73*
X18084Y9011D3*
X18340D3*
X18596D3*
X18852D3*
X19108D3*
X19364D3*
X19620D3*
D75*
X20013Y9405D3*
Y9660D3*
Y9916D3*
Y10172D3*
Y10428D3*
Y10684D3*
Y10940D3*
D73*
X19620Y11334D3*
X19364D3*
X19108D3*
X18852D3*
X18596D3*
X18340D3*
X18084D3*
D71*
X18852Y10172D3*
D69*
X24530Y12200D3*
Y13995D3*
D67*
X21892Y13098D3*
D65*
X15686Y11693D3*
X15174D3*
X15430Y10867D3*
D63*
X29690Y9940D3*
X29198D3*
X28706D3*
X28214D3*
X27721D3*
X27229D3*
X26737D3*
X26245D3*
X25753D3*
X25261D3*
X24769D3*
X24277D3*
X23784D3*
D61*
X22918Y9290D3*
Y8798D3*
Y8306D3*
Y7814D3*
Y7322D3*
Y6830D3*
Y6338D3*
Y5846D3*
D63*
X23784Y5196D3*
X24277D3*
X24769D3*
X25261D3*
X25753D3*
X26245D3*
X26737D3*
X27229D3*
X27721D3*
D59*
X12815Y8690D3*
X13012D3*
X13209D3*
X13406D3*
X13603D3*
X13800D3*
X13996D3*
Y10186D3*
X13800D3*
X13603D3*
X13406D3*
X13209D3*
X13012D3*
X12815D3*
D57*
X10815Y14565D3*
Y13502D3*
X11209D3*
Y14565D3*
X11602D3*
Y13502D3*
D55*
X11209Y14034D3*
M02*
