G04 DipTrace 2.4.0.2*
%INTopPaste.gbr*%
%MOIN*%
%ADD56R,0.0865X0.0511*%
%ADD58R,0.0077X0.0156*%
%ADD60R,0.0018X0.0156*%
%ADD62O,0.1101X0.0255*%
%ADD64O,0.0255X0.1101*%
%ADD66R,0.0117X0.0255*%
%ADD68R,0.2341X0.2105*%
%ADD70R,0.1003X0.0314*%
%ADD72R,0.1652X0.1652*%
%ADD74O,0.0058X0.0255*%
%ADD76O,0.0255X0.0058*%
%ADD78R,0.0707X0.0156*%
%ADD80C,0.1495*%
%ADD82R,0.0314X0.0314*%
%ADD90R,0.0196X0.1574*%
%ADD92R,0.0156X0.0707*%
%ADD94R,0.0432X0.0511*%
%ADD96R,0.0353X0.0314*%
%ADD98R,0.0274X0.0196*%
%ADD100R,0.0196X0.0274*%
%ADD102R,0.0314X0.0353*%
%ADD104R,0.0235X0.0353*%
%ADD106R,0.0511X0.0196*%
%FSLAX44Y44*%
G04*
G70*
G90*
G75*
G01*
%LNTopPaste*%
%LPD*%
D106*
X29065Y12565D3*
Y13746D3*
Y14337D3*
D104*
X29478Y12014D3*
X30030D3*
X29478Y14888D3*
X30030D3*
D102*
X15565Y5690D3*
Y5021D3*
D100*
X18599Y8504D3*
Y7993D3*
D98*
X18723Y11885D3*
X19235D3*
D102*
X25376Y12192D3*
Y11523D3*
X25375Y14001D3*
Y14670D3*
D96*
X29125Y10720D3*
X29794D3*
X25845D3*
X25176D3*
D102*
X22139Y6428D3*
Y5759D3*
D94*
X21940Y10565D3*
X21192D3*
D92*
X18026Y6890D3*
X18419D3*
X18813D3*
X19207D3*
X19601D3*
X19994D3*
D90*
X17632Y6063D3*
X20388D3*
D82*
X26692Y12193D3*
X25905D3*
D102*
X15565Y7690D3*
Y8359D3*
D96*
X17065Y7690D3*
X16396D3*
X20815Y8440D3*
X21484D3*
X20815Y7815D3*
X21484D3*
D102*
X15565Y6440D3*
Y7109D3*
D96*
X21315Y9690D3*
X20646D3*
D102*
X15440Y12565D3*
Y13235D3*
D80*
X10690Y9940D3*
X8040Y7290D3*
Y12590D3*
D78*
X16815Y14565D3*
Y14065D3*
Y13565D3*
Y13065D3*
X18941D3*
Y13565D3*
Y14065D3*
Y14565D3*
D76*
X17690Y10940D3*
Y10684D3*
Y10428D3*
Y10172D3*
Y9916D3*
Y9660D3*
Y9405D3*
D74*
X18084Y9011D3*
X18340D3*
X18596D3*
X18852D3*
X19108D3*
X19364D3*
X19620D3*
D76*
X20013Y9405D3*
Y9660D3*
Y9916D3*
Y10172D3*
Y10428D3*
Y10684D3*
Y10940D3*
D74*
X19620Y11334D3*
X19364D3*
X19108D3*
X18852D3*
X18596D3*
X18340D3*
X18084D3*
D72*
X18852Y10172D3*
D70*
X24530Y12200D3*
Y13995D3*
D68*
X21892Y13098D3*
D66*
X15686Y11693D3*
X15174D3*
X15430Y10867D3*
D64*
X29690Y9940D3*
X29198D3*
X28706D3*
X28214D3*
X27721D3*
X27229D3*
X26737D3*
X26245D3*
X25753D3*
X25261D3*
X24769D3*
X24277D3*
X23784D3*
D62*
X22918Y9290D3*
Y8798D3*
Y8306D3*
Y7814D3*
Y7322D3*
Y6830D3*
Y6338D3*
Y5846D3*
D64*
X23784Y5196D3*
X24277D3*
X24769D3*
X25261D3*
X25753D3*
X26245D3*
X26737D3*
X27229D3*
X27721D3*
D60*
X12815Y8690D3*
X13012D3*
X13209D3*
X13406D3*
X13603D3*
X13800D3*
X13996D3*
Y10186D3*
X13800D3*
X13603D3*
X13406D3*
X13209D3*
X13012D3*
X12815D3*
D58*
X10815Y14565D3*
Y13502D3*
X11209D3*
Y14565D3*
X11602D3*
Y13502D3*
D56*
X11209Y14034D3*
M02*
